<svg id="_x31_" enable-background="new 0 0 24 24" height="512" viewBox="0 0 24 24" width="512" xmlns="http://www.w3.org/2000/svg"><g><g><path d="m21.5 24h-19c-1.379 0-2.5-1.121-2.5-2.5v-19c0-1.379 1.121-2.5 2.5-2.5h19c1.379 0 2.5 1.121 2.5 2.5v19c0 1.379-1.121 2.5-2.5 2.5zm-19-23c-.827 0-1.5.673-1.5 1.5v19c0 .827.673 1.5 1.5 1.5h19c.827 0 1.5-.673 1.5-1.5v-19c0-.827-.673-1.5-1.5-1.5z"/></g></g><g><g><path d="m9.954 17.954c-.133 0-.26-.053-.354-.146l-5.454-5.454c-.195-.195-.195-.512 0-.707s.512-.195.707 0l5.076 5.076 9.194-10.506c.182-.209.498-.229.705-.047.208.182.229.497.047.705l-9.545 10.908c-.091.104-.221.166-.359.171-.006 0-.011 0-.017 0z"/></g></g></svg>