<?xml version="1.0" standalone="no"?>
<!DOCTYPE svg PUBLIC "-//W3C//DTD SVG 20010904//EN"
 "http://www.w3.org/TR/2001/REC-SVG-20010904/DTD/svg10.dtd">
<svg version="1.0" xmlns="http://www.w3.org/2000/svg"
 width="24" height="24" viewBox="0 0 200.000000 200.000000"
 preserveAspectRatio="xMidYMid meet">
<metadata>
Created by potrace 1.16, written by Peter Selinger 2001-2019
</metadata>
<g transform="translate(0.000000,200.000000) scale(0.100000,-0.100000)"
fill="#000000" stroke="none">
<path d="M1239 1867 c-57 -38 -74 -99 -45 -155 8 -15 49 -61 90 -102 l76 -74
-85 -86 c-46 -47 -87 -98 -90 -113 -18 -72 30 -144 102 -154 54 -7 83 10 173
101 l74 76 86 -85 c47 -46 98 -87 113 -90 99 -25 186 77 143 167 -9 19 -50 67
-91 108 l-75 74 84 86 c64 65 86 94 91 122 15 82 -61 158 -143 143 -28 -5 -57
-27 -122 -91 l-86 -84 -74 75 c-107 108 -156 126 -221 82z"/>
<path d="M355 1771 c-51 -31 -202 -194 -220 -236 -28 -66 -16 -226 25 -340
146 -406 499 -790 902 -980 213 -100 376 -126 478 -75 37 19 206 184 227 223
7 12 12 44 13 71 l0 49 -147 149 c-93 94 -159 152 -179 158 -60 20 -100 0
-198 -99 l-89 -90 -56 29 c-167 84 -398 312 -484 477 l-32 63 86 87 c48 49 92
98 98 110 15 30 14 89 -3 121 -17 32 -262 275 -293 291 -33 17 -94 13 -128 -8z"/>
</g>
</svg>
