<svg id="_x31_" enable-background="new 0 0 24 24" height="512" viewBox="0 0 24 24" width="512" xmlns="http://www.w3.org/2000/svg"><g><g><g><path d="m4.5 11c-.189 0-.362-.107-.447-.276l-2-4c-.123-.247-.024-.548.223-.671s.547-.024.671.223l1.553 3.106 1.553-3.105c.125-.248.424-.345.671-.224.247.123.346.424.223.671l-2 4c-.085.169-.258.276-.447.276z"/></g></g><g><g><path d="m10 11c-1.103 0-2-.897-2-2v-1c0-1.103.897-2 2-2s2 .897 2 2v1c0 1.103-.897 2-2 2zm0-4c-.552 0-1 .449-1 1v1c0 .551.448 1 1 1s1-.449 1-1v-1c0-.551-.448-1-1-1z"/></g></g><g><g><path d="m16.5 7h-3c-.276 0-.5-.224-.5-.5s.224-.5.5-.5h3c.276 0 .5.224.5.5s-.224.5-.5.5z"/></g></g><g><g><path d="m15 11c-.276 0-.5-.224-.5-.5v-4c0-.276.224-.5.5-.5s.5.224.5.5v4c0 .276-.224.5-.5.5z"/></g></g><g><g><path d="m21.5 11h-3c-.276 0-.5-.224-.5-.5v-4c0-.276.224-.5.5-.5h3c.276 0 .5.224.5.5s-.224.5-.5.5h-2.5v3h2.5c.276 0 .5.224.5.5s-.224.5-.5.5z"/></g></g><g><g><path d="m21.5 9h-3c-.276 0-.5-.224-.5-.5s.224-.5.5-.5h3c.276 0 .5.224.5.5s-.224.5-.5.5z"/></g></g></g><g><g><path d="m12.5 24h-1c-.827 0-1.5-.673-1.5-1.5v-6c0-.276.224-.5.5-.5s.5.224.5.5v6c0 .276.225.5.5.5h1c.275 0 .5-.224.5-.5v-6c0-.276.224-.5.5-.5s.5.224.5.5v6c0 .827-.673 1.5-1.5 1.5z"/></g></g><g><g><path d="m21.5 17h-19c-1.379 0-2.5-1.122-2.5-2.5v-12c0-1.378 1.121-2.5 2.5-2.5h19c1.379 0 2.5 1.122 2.5 2.5v12c0 1.378-1.121 2.5-2.5 2.5zm-19-16c-.827 0-1.5.673-1.5 1.5v12c0 .827.673 1.5 1.5 1.5h19c.827 0 1.5-.673 1.5-1.5v-12c0-.827-.673-1.5-1.5-1.5z"/></g></g></svg>